<svg width="16" height="12" viewBox="0 0 16 12" fill="none" xmlns="http://www.w3.org/2000/svg">
<g clip-path="url(#clip0_69_47)">
<path fill-rule="evenodd" clip-rule="evenodd" d="M15 0.839968V10.52C15 10.7961 14.7762 11.02 14.5 11.02L1.5 11.02C1.22386 11.02 1 10.7961 1 10.52V2.88H0V10.52C0 11.3484 0.671572 12.02 1.5 12.02L14.5 12.02C15.3285 12.02 16 11.3484 16 10.52V0H16H15H14.4453H1.55475H1.39653H0.896305H0.686305C0.452968 0 0.34684 0.291346 0.525507 0.441426L0.686305 0.576497L1.06933 0.898235L1.19048 1L7.35681 6.17972C7.7287 6.49211 8.2713 6.49211 8.64319 6.17972L14.8095 1L15 0.839968ZM8 5.41401L2.74522 1H13.2548L8 5.41401Z" fill="black"/>
</g>
<defs>
<clipPath id="clip0_69_47">
<rect width="16" height="12" fill="white"/>
</clipPath>
</defs>
</svg>
