<svg width="14" height="17" viewBox="0 0 14 17" fill="none" xmlns="http://www.w3.org/2000/svg">
<path fill-rule="evenodd" clip-rule="evenodd" d="M9.63396 4.76983C9.63396 6.83001 7.91791 8.53965 5.75171 8.53965C3.58551 8.53965 1.86946 6.83001 1.86946 4.76983C1.86946 2.70964 3.58551 1 5.75171 1C7.91791 1 9.63396 2.70964 9.63396 4.76983ZM10.634 4.76983C10.634 7.40413 8.4481 9.53965 5.75171 9.53965C3.05532 9.53965 0.86946 7.40413 0.86946 4.76983C0.86946 2.13552 3.05532 0 5.75171 0C8.4481 0 10.634 2.13552 10.634 4.76983ZM13.1182 16.0145C11.7575 13.3557 9.14188 12.2114 6.57073 12.0291C5.2871 11.9381 4.03596 12.09 2.99714 12.4031C1.94525 12.7201 1.16747 13.1845 0.768084 13.6723L-0.00561523 13.0387C0.571448 12.334 1.56349 11.7907 2.70861 11.4456C3.86681 11.0966 5.23987 10.9322 6.64148 11.0316C9.44081 11.2301 12.4398 12.4939 14.0084 15.5589L13.1182 16.0145Z" fill="black"/>
</svg>
