<svg width="16" height="16" viewBox="0 0 16 16" fill="none" xmlns="http://www.w3.org/2000/svg">
<g clip-path="url(#clip0_69_45)">
<path fill-rule="evenodd" clip-rule="evenodd" d="M0.685406 8.40284L7.65323 1.16588C7.84476 0.966957 8.15529 0.966957 8.34682 1.16588L15.3146 8.40284L16.0082 7.68247L9.0404 0.445509C8.46582 -0.151269 7.53423 -0.151271 6.95965 0.445508L-0.00817871 7.68247L0.685406 8.40284ZM14.2461 14.5027V8.53999H13.2461V14.5027C13.2461 14.7788 13.0222 15.0027 12.7461 15.0027H3.25397C2.97782 15.0027 2.75397 14.7788 2.75397 14.5027V12.0213H1.75397V14.5027C1.75397 15.3311 2.42554 16.0027 3.25397 16.0027H12.7461C13.5745 16.0027 14.2461 15.3311 14.2461 14.5027Z" fill="black"/>
</g>
<defs>
<clipPath id="clip0_69_45">
<rect width="16" height="16" fill="white"/>
</clipPath>
</defs>
</svg>
