<svg width="19" height="21" viewBox="0 0 19 21" fill="none" xmlns="http://www.w3.org/2000/svg">
<path fill-rule="evenodd" clip-rule="evenodd" d="M12.5 6C12.5 8.48528 10.4853 10.5 8 10.5C5.51472 10.5 3.5 8.48528 3.5 6C3.5 3.51472 5.51472 1.5 8 1.5C10.4853 1.5 12.5 3.51472 12.5 6ZM14 6C14 9.31371 11.3137 12 8 12C4.68629 12 2 9.31371 2 6C2 2.68629 4.68629 0 8 0C11.3137 0 14 2.68629 14 6ZM17.3216 20.3197C15.5747 16.6126 12.2343 15.0376 8.97018 14.7861C7.33511 14.6602 5.74194 14.8706 4.42079 15.303C3.08305 15.7408 2.10141 16.3797 1.59886 17.0463L0.40114 16.1432C1.15785 15.1396 2.45862 14.3669 3.95421 13.8774C5.4664 13.3825 7.25748 13.1498 9.08538 13.2906C12.7472 13.5726 16.6475 15.3704 18.6784 19.6803L17.3216 20.3197Z" fill="black"/>
</svg>
