<svg width="21" height="21" viewBox="0 0 21 21" fill="none" xmlns="http://www.w3.org/2000/svg">
<path fill-rule="evenodd" clip-rule="evenodd" d="M1.53798 10.5413L10.1051 2.21936C10.2041 2.12316 10.3647 2.12316 10.4637 2.21936L19.0308 10.5413L20.1068 9.49619L11.5397 1.17421C10.8464 0.500779 9.7224 0.50078 9.02914 1.17421L0.462038 9.49619L1.53798 10.5413ZM17.62 18.4217V11.8556H16.12V18.4217C16.12 18.5598 16.0081 18.6717 15.87 18.6717H4.3913C4.25323 18.6717 4.1413 18.5598 4.1413 18.4217V15.6387H2.6413V18.4217C2.6413 19.3882 3.42481 20.1717 4.3913 20.1717H15.87C16.8365 20.1717 17.62 19.3882 17.62 18.4217Z" fill="black"/>
</svg>
