<svg width="19" height="20" viewBox="0 0 19 20" fill="none" xmlns="http://www.w3.org/2000/svg">
<path fill-rule="evenodd" clip-rule="evenodd" d="M11.9813 5.87479C11.9813 8.31538 10.0433 10.2496 7.70686 10.2496C5.3704 10.2496 3.43241 8.31538 3.43241 5.87479C3.43241 3.43419 5.3704 1.5 7.70686 1.5C10.0433 1.5 11.9813 3.43419 11.9813 5.87479ZM13.4813 5.87479C13.4813 9.11934 10.896 11.7496 7.70686 11.7496C4.51772 11.7496 1.93241 9.11934 1.93241 5.87479C1.93241 2.63023 4.51772 0 7.70686 0C10.896 0 13.4813 2.63023 13.4813 5.87479ZM16.6504 19.8978C14.9716 16.2732 11.7654 14.7382 8.63741 14.4931C7.06918 14.3702 5.54125 14.5756 4.27462 14.9973C2.99204 15.4244 2.05288 16.0469 1.57257 16.695L0.367432 15.8019C1.09905 14.8147 2.35649 14.055 3.80073 13.5741C5.26093 13.0879 6.99005 12.8594 8.7546 12.9977C12.2922 13.2749 16.0545 15.0423 18.0115 19.2674L16.6504 19.8978Z" fill="black"/>
</svg>
