<svg width="20" height="16" viewBox="0 0 20 16" fill="none" xmlns="http://www.w3.org/2000/svg">
<path fill-rule="evenodd" clip-rule="evenodd" d="M18.25 1.57496V14C18.25 14.1381 18.1381 14.25 18 14.25L2 14.25C1.86193 14.25 1.75 14.138 1.75 14V3.75H0.25V14C0.25 14.9665 1.0335 15.75 2 15.75L18 15.75C18.9665 15.75 19.75 14.9665 19.75 14V0.224959L20 0H19.75H18.25H17.7577H2.24227H1.88052H0.87649H0.65149C0.422369 0 0.313944 0.28255 0.484248 0.435824L0.65149 0.586341L1.39778 1.258L1.66667 1.5L9.33103 8.39793C9.71134 8.74021 10.2887 8.74021 10.669 8.39793L18.25 1.57496ZM10 6.98196L3.90894 1.5H16.0911L10 6.98196Z" fill="black"/>
</svg>
