<svg width="50" height="50" viewBox="0 0 50 50" fill="none" xmlns="http://www.w3.org/2000/svg">
<path fill-rule="evenodd" clip-rule="evenodd" d="M49 25C49 38.2548 38.2548 49 25 49C11.7452 49 1 38.2548 1 25C1 11.7452 11.7452 1 25 1C38.2548 1 49 11.7452 49 25ZM50 25C50 38.8071 38.8071 50 25 50C11.1929 50 0 38.8071 0 25C0 11.1929 11.1929 0 25 0C38.8071 0 50 11.1929 50 25ZM14.7083 17.4348C16.1925 17.4348 17.395 16.2185 17.395 14.7174C17.395 13.2174 16.1925 12 14.7083 12C13.2242 12 12.0217 13.2174 12.0217 14.7174C12.0217 16.2185 13.2242 17.4348 14.7083 17.4348ZM12 37V19.6087H17.4167V37H12ZM20.6818 19.6087H26.0638V21.9511C28.3345 17.7348 38 17.4228 38 25.988V37H32.5963V27.8707C32.5963 22.3793 26.0649 22.7946 26.0649 27.8707V37H20.6818V19.6087Z" fill="black"/>
</svg>
