<svg width="50" height="50" viewBox="0 0 50 50" fill="none" xmlns="http://www.w3.org/2000/svg">
<path fill-rule="evenodd" clip-rule="evenodd" d="M49 25C49 38.2548 38.2548 49 25 49C11.7452 49 1 38.2548 1 25C1 11.7452 11.7452 1 25 1C38.2548 1 49 11.7452 49 25ZM50 25C50 38.8071 38.8071 50 25 50C11.1929 50 0 38.8071 0 25C0 11.1929 11.1929 0 25 0C38.8071 0 50 11.1929 50 25ZM28.5 19.1666H36.6667V16.8333H28.5V19.1666ZM32.7292 34.3333C36.3132 34.3333 38.1647 32.3464 38.6803 30.8333H34.9843C33.6952 32.3301 29.7833 32.2122 29.6317 28.4661H38.9965C39.0128 27.3554 38.9767 26.5598 38.8857 25.9694C38.4062 22.8848 36.2105 20.8058 32.6148 20.8058C28.9503 20.8058 26.2378 23.1508 26.2378 27.7124C26.2378 32.3161 29.1428 34.3333 32.7292 34.3333ZM35.5058 26.1666H29.7133C29.9595 24.4738 30.9057 23.5778 32.616 23.5778C34.1805 23.5778 35.3833 24.3618 35.5058 26.1666ZM11 34.3193H18.5437C26.4583 34.3193 26.323 26.3848 22.2852 24.9148C25.6218 23.2091 25.5005 16.9523 19.1118 16.8578H11V34.3193ZM18.6813 23.8333H14.5V20.3333H18.3173C22.0717 20.3333 21.6073 23.8333 18.6813 23.8333ZM14.5 27.3333H18.4562C21.7438 27.3333 21.962 30.8519 18.3978 30.8519H14.5V27.3333Z" fill="black"/>
</svg>
