<svg width="54" height="54" viewBox="0 0 54 54" fill="none" xmlns="http://www.w3.org/2000/svg">
<path d="M31.1857 3.00773C29.4672 2.46559 27.6259 2.16895 25.7233 2.16895C20.1689 2.16895 15.1975 4.67508 11.873 8.62353L20.4144 15.8044L31.1857 3.00773Z" fill="#1A73E8"/>
<path d="M11.8735 8.62354C9.13514 11.876 7.6351 15.9921 7.63868 20.2438C7.63868 23.6399 8.3138 26.4018 9.42878 28.867L20.4149 15.8044L11.8735 8.62354Z" fill="#EA4335"/>
<path d="M25.7225 13.3393C27.0411 13.3405 28.3319 13.7184 29.4429 14.4287C30.5539 15.1389 31.4388 16.1518 31.9934 17.3481C32.548 18.5443 32.7492 19.8742 32.5733 21.181C32.3975 22.4878 31.8519 23.7172 31.0008 24.7243L41.7618 11.9276C39.553 7.67205 35.745 4.46746 31.1747 3.01807L20.4238 15.8147C21.0716 15.039 21.882 14.4151 22.7977 13.9873C23.7133 13.5595 24.7119 13.3383 25.7225 13.3393Z" fill="#4285F4"/>
<path d="M25.7227 27.1688C21.9073 27.1688 18.8079 24.0694 18.8079 20.2539C18.8034 18.6293 19.3762 17.0559 20.4241 15.8145L9.42773 28.8771C11.3099 33.0403 14.4298 36.3852 17.6417 40.5996L31.001 24.724C30.3519 25.4909 29.5434 26.1069 28.6318 26.5292C27.7202 26.9514 26.7274 27.1697 25.7227 27.1688Z" fill="#FBBC04"/>
<path d="M30.7354 44.9269C36.7706 35.4956 43.798 31.2096 43.798 20.244C43.798 17.2366 43.0615 14.4031 41.7624 11.9072L17.6523 40.5999C18.6753 41.94 19.7084 43.3618 20.7109 44.9371C24.3729 50.604 23.3602 54.0001 25.7231 54.0001C28.0861 54.0001 27.0734 50.5938 30.7354 44.9269Z" fill="#34A853"/>
</svg>
