<svg width="128" height="21" viewBox="0 0 128 21" fill="none" xmlns="http://www.w3.org/2000/svg">
<path d="M0 15.8231L6.204 0.687131H7.414L13.552 15.8231H11.814L6.468 2.44713H7.106L1.716 15.8231H0ZM2.838 11.8851V10.4551H10.758V11.8851H2.838Z" fill="black"/>
<path d="M19.1055 16.0431C18.5481 16.0431 18.0128 15.9698 17.4995 15.8231C16.9861 15.6618 16.5168 15.4418 16.0915 15.1631C15.6808 14.8845 15.3215 14.5545 15.0135 14.1731L16.0035 13.1611C16.4141 13.6598 16.8761 14.0338 17.3895 14.2831C17.9175 14.5178 18.5041 14.6351 19.1495 14.6351C19.8388 14.6351 20.3741 14.5031 20.7555 14.2391C21.1515 13.9751 21.3495 13.6085 21.3495 13.1391C21.3495 12.6991 21.2101 12.3545 20.9315 12.1051C20.6528 11.8558 20.2935 11.6578 19.8535 11.5111C19.4281 11.3645 18.9735 11.2251 18.4895 11.0931C18.0055 10.9465 17.5435 10.7705 17.1035 10.5651C16.6635 10.3451 16.3041 10.0445 16.0255 9.66313C15.7615 9.2818 15.6295 8.78313 15.6295 8.16713C15.6295 7.58046 15.7688 7.07446 16.0475 6.64913C16.3408 6.20913 16.7515 5.8718 17.2795 5.63713C17.8221 5.3878 18.4601 5.26313 19.1935 5.26313C19.9708 5.26313 20.6748 5.40246 21.3055 5.68113C21.9361 5.9598 22.4421 6.37046 22.8235 6.91313L21.8335 7.90313C21.5255 7.50713 21.1368 7.20646 20.6675 7.00113C20.2128 6.78113 19.6995 6.67113 19.1275 6.67113C18.4675 6.67113 17.9615 6.80313 17.6095 7.06713C17.2721 7.31646 17.1035 7.64646 17.1035 8.05713C17.1035 8.45313 17.2428 8.76847 17.5215 9.00313C17.8001 9.22313 18.1521 9.40646 18.5775 9.55313C19.0175 9.68513 19.4795 9.82446 19.9635 9.97113C20.4475 10.1031 20.9095 10.2865 21.3495 10.5211C21.7895 10.7411 22.1415 11.0491 22.4055 11.4451C22.6841 11.8265 22.8235 12.3471 22.8235 13.0071C22.8235 13.9311 22.4861 14.6718 21.8115 15.2291C21.1515 15.7718 20.2495 16.0431 19.1055 16.0431Z" fill="black"/>
<path d="M32.7857 15.8231V9.75113C32.7857 8.8418 32.5143 8.10846 31.9717 7.55113C31.4437 6.97913 30.7397 6.69313 29.8597 6.69313C29.2583 6.69313 28.7303 6.82513 28.2757 7.08913C27.821 7.35313 27.4617 7.71246 27.1977 8.16713C26.9337 8.6218 26.8017 9.14247 26.8017 9.72913L26.0977 9.33313C26.0977 8.5558 26.281 7.85913 26.6477 7.24313C27.0143 6.62713 27.5057 6.14313 28.1217 5.79113C28.7523 5.43913 29.471 5.26313 30.2777 5.26313C31.0697 5.26313 31.7737 5.44646 32.3897 5.81313C33.0057 6.16513 33.4823 6.65646 33.8197 7.28713C34.1717 7.9178 34.3477 8.65113 34.3477 9.48713V15.8231H32.7857ZM25.2617 15.8231V0.247131H26.8017V15.8231H25.2617Z" fill="black"/>
<path d="M37.2285 15.8231V0.247131H38.7685V15.8231H37.2285Z" fill="black"/>
<path d="M46.6646 16.0431C45.6232 16.0431 44.6919 15.8085 43.8706 15.3391C43.0492 14.8698 42.3966 14.2245 41.9126 13.4031C41.4432 12.5818 41.2086 11.6578 41.2086 10.6311C41.2086 9.61913 41.4432 8.7098 41.9126 7.90313C42.3819 7.0818 43.0199 6.43646 43.8266 5.96713C44.6332 5.4978 45.5352 5.26313 46.5326 5.26313C47.4712 5.26313 48.2999 5.4758 49.0186 5.90113C49.7519 6.32646 50.3239 6.92046 50.7346 7.68313C51.1599 8.43113 51.3726 9.29646 51.3726 10.2791C51.3726 10.3965 51.3652 10.5358 51.3506 10.6971C51.3359 10.8438 51.3066 11.0198 51.2626 11.2251H42.3086V9.90513H50.4266L49.8766 10.3891C49.8912 9.62646 49.7592 8.9738 49.4806 8.43113C49.2166 7.8738 48.8279 7.44846 48.3146 7.15513C47.8159 6.84713 47.2072 6.69313 46.4886 6.69313C45.7406 6.69313 45.0879 6.85446 44.5306 7.17713C43.9732 7.4998 43.5332 7.95446 43.2106 8.54113C42.9026 9.11313 42.7486 9.79513 42.7486 10.5871C42.7486 11.3791 42.9099 12.0758 43.2326 12.6771C43.5699 13.2785 44.0319 13.7478 44.6186 14.0851C45.2199 14.4225 45.9092 14.5911 46.6866 14.5911C47.3172 14.5911 47.8966 14.4811 48.4246 14.2611C48.9526 14.0265 49.3999 13.6818 49.7666 13.2271L50.7566 14.2391C50.2726 14.8111 49.6712 15.2585 48.9526 15.5811C48.2486 15.8891 47.4859 16.0431 46.6646 16.0431Z" fill="black"/>
<path d="M57.0106 15.8671L52.4786 5.48313H54.1726L57.8246 14.1511H57.1866L61.0366 5.48313H62.7526L57.8906 15.8671H57.0106ZM54.1946 20.1791L57.0326 14.3051L57.8906 15.8671L55.8886 20.1791H54.1946Z" fill="black"/>
<path d="M79.464 15.8231L71.192 7.92513L79.288 0.687131H81.444L72.82 8.36513V7.44113L81.664 15.8231H79.464ZM69.872 15.8231V0.687131H71.478V15.8231H69.872Z" fill="black"/>
<path d="M87.2848 16.0431C86.3022 16.0431 85.4222 15.8085 84.6448 15.3391C83.8675 14.8551 83.2515 14.2098 82.7968 13.4031C82.3568 12.5965 82.1368 11.6871 82.1368 10.6751C82.1368 9.64846 82.3568 8.7318 82.7968 7.92513C83.2515 7.1038 83.8675 6.45846 84.6448 5.98913C85.4222 5.50513 86.2948 5.26313 87.2628 5.26313C88.0548 5.26313 88.7588 5.42446 89.3748 5.74713C90.0055 6.05513 90.5115 6.49513 90.8928 7.06713C91.2888 7.62446 91.5308 8.27713 91.6188 9.02513V12.2591C91.5308 13.0071 91.2888 13.6671 90.8928 14.2391C90.5115 14.8111 90.0055 15.2585 89.3748 15.5811C88.7588 15.8891 88.0622 16.0431 87.2848 16.0431ZM87.5268 14.5691C88.5975 14.5691 89.4555 14.2098 90.1008 13.4911C90.7608 12.7725 91.0908 11.8265 91.0908 10.6531C91.0908 9.8758 90.9368 9.1938 90.6288 8.60713C90.3355 8.0058 89.9175 7.5438 89.3748 7.22113C88.8468 6.8838 88.2235 6.71513 87.5048 6.71513C86.7715 6.71513 86.1188 6.8838 85.5468 7.22113C84.9895 7.55846 84.5422 8.0278 84.2048 8.62913C83.8822 9.2158 83.7208 9.89047 83.7208 10.6531C83.7208 11.4158 83.8822 12.0905 84.2048 12.6771C84.5422 13.2638 84.9968 13.7258 85.5688 14.0631C86.1408 14.4005 86.7935 14.5691 87.5268 14.5691ZM91.0028 15.8231V13.0511L91.3108 10.4991L91.0028 8.01313V5.48313H92.5428V15.8231H91.0028Z" fill="black"/>
<path d="M103.19 15.8231V9.75113C103.19 8.8418 102.919 8.10846 102.376 7.55113C101.848 6.97913 101.144 6.69313 100.264 6.69313C99.6626 6.69313 99.1346 6.82513 98.68 7.08913C98.2253 7.35313 97.866 7.71246 97.602 8.16713C97.338 8.6218 97.206 9.14247 97.206 9.72913L96.502 9.33313C96.502 8.5558 96.6853 7.85913 97.052 7.24313C97.4186 6.62713 97.91 6.14313 98.526 5.79113C99.1566 5.43913 99.8753 5.26313 100.682 5.26313C101.474 5.26313 102.178 5.4538 102.794 5.83513C103.41 6.21646 103.887 6.7298 104.224 7.37513C104.576 8.02046 104.752 8.72446 104.752 9.48713V15.8231H103.19ZM95.666 15.8231V5.48313H97.206V15.8231H95.666Z" fill="black"/>
<path d="M112.121 16.0431C111.138 16.0431 110.258 15.8085 109.481 15.3391C108.703 14.8551 108.087 14.2098 107.633 13.4031C107.193 12.5965 106.973 11.6871 106.973 10.6751C106.973 9.64846 107.193 8.7318 107.633 7.92513C108.087 7.1038 108.703 6.45846 109.481 5.98913C110.258 5.50513 111.131 5.26313 112.099 5.26313C112.891 5.26313 113.595 5.42446 114.211 5.74713C114.841 6.05513 115.347 6.49513 115.729 7.06713C116.125 7.62446 116.367 8.27713 116.455 9.02513V12.2591C116.367 13.0071 116.125 13.6671 115.729 14.2391C115.347 14.8111 114.841 15.2585 114.211 15.5811C113.595 15.8891 112.898 16.0431 112.121 16.0431ZM112.363 14.5691C113.433 14.5691 114.291 14.2098 114.937 13.4911C115.597 12.7725 115.927 11.8265 115.927 10.6531C115.927 9.8758 115.773 9.1938 115.465 8.60713C115.171 8.0058 114.753 7.5438 114.211 7.22113C113.683 6.8838 113.059 6.71513 112.341 6.71513C111.607 6.71513 110.955 6.8838 110.383 7.22113C109.825 7.55846 109.378 8.0278 109.041 8.62913C108.718 9.2158 108.557 9.89047 108.557 10.6531C108.557 11.4158 108.718 12.0905 109.041 12.6771C109.378 13.2638 109.833 13.7258 110.405 14.0631C110.977 14.4005 111.629 14.5691 112.363 14.5691ZM115.839 15.8231V13.0511L116.147 10.4991L115.839 8.01313V5.48313H117.379V15.8231H115.839Z" fill="black"/>
<path d="M123.296 16.0431C123.853 16.0431 124.389 15.9698 124.902 15.8231C125.415 15.6618 125.885 15.4418 126.31 15.1631C126.721 14.8845 127.08 14.5545 127.388 14.1731L126.398 13.1611C125.987 13.6598 125.525 14.0338 125.012 14.2831C124.484 14.5178 123.897 14.6351 123.252 14.6351C122.563 14.6351 122.027 14.5031 121.646 14.2391C121.25 13.9751 121.052 13.6085 121.052 13.1391C121.052 12.6991 121.191 12.3545 121.47 12.1051C121.749 11.8558 122.108 11.6578 122.548 11.5111C122.973 11.3645 123.428 11.2251 123.912 11.0931C124.396 10.9465 124.858 10.7705 125.298 10.5651C125.738 10.3451 126.097 10.0445 126.376 9.66313C126.64 9.2818 126.772 8.78313 126.772 8.16713C126.772 7.58046 126.633 7.07446 126.354 6.64913C126.061 6.20913 125.65 5.8718 125.122 5.63713C124.579 5.3878 123.941 5.26313 123.208 5.26313C122.431 5.26313 121.727 5.40246 121.096 5.68113C120.465 5.9598 119.959 6.37046 119.578 6.91313L120.568 7.90313C120.876 7.50713 121.265 7.20646 121.734 7.00113C122.189 6.78113 122.702 6.67113 123.274 6.67113C123.934 6.67113 124.44 6.80313 124.792 7.06713C125.129 7.31646 125.298 7.64646 125.298 8.05713C125.298 8.45313 125.159 8.76847 124.88 9.00313C124.601 9.22313 124.249 9.40646 123.824 9.55313C123.384 9.68513 122.922 9.82446 122.438 9.97113C121.954 10.1031 121.492 10.2865 121.052 10.5211C120.612 10.7411 120.26 11.0491 119.996 11.4451C119.717 11.8265 119.578 12.3471 119.578 13.0071C119.578 13.9311 119.915 14.6718 120.59 15.2291C121.25 15.7718 122.152 16.0431 123.296 16.0431Z" fill="black"/>
</svg>
