<svg width="247" height="83" viewBox="0 0 247 83" fill="none" xmlns="http://www.w3.org/2000/svg">
<rect width="247" height="83" fill="white"/>
<path d="M45.128 35.688C44.1492 35.688 43.2726 35.4549 42.4983 34.9888C41.7239 34.5081 41.1103 33.8672 40.6574 33.0661C40.2191 32.2649 40 31.3618 40 30.3567C40 29.3371 40.2191 28.4267 40.6574 27.6255C41.1103 26.8098 41.7239 26.1689 42.4983 25.7027C43.2726 25.2221 44.1419 24.9817 45.1061 24.9817C45.895 24.9817 46.5963 25.1419 47.2099 25.4624C47.8381 25.7683 48.3421 26.2053 48.722 26.7734C49.1165 27.3269 49.3575 27.9751 49.4452 28.718V31.9299C49.3575 32.6728 49.1165 33.3283 48.722 33.8963C48.3421 34.4644 47.8381 34.9087 47.2099 35.2292C46.5963 35.5351 45.9023 35.688 45.128 35.688ZM45.3691 34.2241C46.4356 34.2241 47.2902 33.8672 47.9331 33.1535C48.5905 32.4397 48.9192 31.5002 48.9192 30.3349C48.9192 29.5628 48.7658 28.8855 48.459 28.3028C48.1668 27.7056 47.7505 27.2468 47.2099 26.9263C46.6839 26.5913 46.063 26.4238 45.3472 26.4238C44.6167 26.4238 43.9665 26.5913 43.3968 26.9263C42.8416 27.2613 42.396 27.7275 42.06 28.3247C41.7386 28.9073 41.5778 29.5774 41.5778 30.3349C41.5778 31.0923 41.7386 31.7624 42.06 32.345C42.396 32.9277 42.8489 33.3865 43.4187 33.7215C43.9885 34.0566 44.6386 34.2241 45.3691 34.2241ZM48.8316 35.4695V32.7165L49.1384 30.1819L48.8316 27.7129V25.2002H50.3656V35.4695H48.8316Z" fill="black"/>
<path d="M60.7961 35.688C60.2409 35.688 59.7076 35.6152 59.1963 35.4695C58.685 35.3093 58.2175 35.0908 57.7938 34.814C57.3847 34.5373 57.0268 34.2095 56.72 33.8308L57.7061 32.8257C58.1152 33.321 58.5754 33.6924 59.0867 33.94C59.6127 34.1731 60.1971 34.2896 60.8399 34.2896C61.5266 34.2896 62.0598 34.1585 62.4397 33.8963C62.8341 33.6341 63.0314 33.27 63.0314 32.8039C63.0314 32.3669 62.8926 32.0246 62.615 31.7769C62.3374 31.5293 61.9795 31.3327 61.5412 31.187C61.1175 31.0413 60.6646 30.9029 60.1825 30.7718C59.7003 30.6262 59.2401 30.4514 58.8018 30.2475C58.3636 30.029 58.0056 29.7304 57.728 29.3516C57.4651 28.9729 57.3336 28.4776 57.3336 27.8659C57.3336 27.2832 57.4724 26.7807 57.7499 26.3582C58.0421 25.9212 58.4512 25.5862 58.9772 25.3531C59.5177 25.1055 60.1532 24.9817 60.8837 24.9817C61.658 24.9817 62.3593 25.1201 62.9875 25.3968C63.6157 25.6736 64.1198 26.0815 64.4996 26.6204L63.5135 27.6037C63.2067 27.2104 62.8195 26.9118 62.352 26.7078C61.8991 26.4893 61.3878 26.3801 60.818 26.3801C60.1606 26.3801 59.6565 26.5112 59.3059 26.7734C58.9699 27.021 58.8018 27.3487 58.8018 27.7566C58.8018 28.1499 58.9406 28.4631 59.2182 28.6961C59.4958 28.9146 59.8464 29.0967 60.2701 29.2424C60.7084 29.3735 61.1686 29.5119 61.6507 29.6575C62.1329 29.7886 62.5931 29.9707 63.0314 30.2038C63.4697 30.4223 63.8203 30.7281 64.0833 31.1214C64.3608 31.5002 64.4996 32.0173 64.4996 32.6728C64.4996 33.5904 64.1636 34.326 63.4916 34.8796C62.8341 35.4185 61.9356 35.688 60.7961 35.688Z" fill="black"/>
<path d="M78.5869 35.4695V29.439C78.5869 28.5359 78.3167 27.8076 77.7761 27.2541C77.2502 26.686 76.5489 26.4019 75.6723 26.4019C75.0733 26.4019 74.5474 26.533 74.0945 26.7952C73.6416 27.0574 73.2836 27.4143 73.0206 27.8659C72.7577 28.3174 72.6262 28.8345 72.6262 29.4172L71.9249 29.0239C71.9249 28.2519 72.1075 27.56 72.4728 26.9482C72.838 26.3364 73.3274 25.8557 73.9411 25.5061C74.5693 25.1565 75.2851 24.9817 76.0887 24.9817C76.8776 24.9817 77.5789 25.1638 78.1925 25.5279C78.8061 25.8775 79.2809 26.3655 79.6169 26.9919C79.9676 27.6182 80.1429 28.3465 80.1429 29.1768V35.4695H78.5869ZM71.0922 35.4695V20H72.6262V35.4695H71.0922Z" fill="black"/>
<path d="M87.1763 35.4695V20H88.7103V35.4695H87.1763Z" fill="black"/>
<path d="M100.739 35.688C99.7022 35.688 98.7745 35.4549 97.9563 34.9888C97.1382 34.5227 96.4881 33.8818 96.0059 33.0661C95.5384 32.2503 95.3047 31.3327 95.3047 30.313C95.3047 29.3079 95.5384 28.4048 96.0059 27.6037C96.4735 26.7879 97.109 26.147 97.9125 25.6809C98.716 25.2148 99.6145 24.9817 100.608 24.9817C101.543 24.9817 102.368 25.1929 103.084 25.6153C103.815 26.0378 104.385 26.6277 104.794 27.3852C105.217 28.128 105.429 28.9875 105.429 29.9634C105.429 30.0799 105.422 30.2183 105.407 30.3786C105.393 30.5242 105.363 30.699 105.32 30.9029H96.4004V29.592H104.487L103.939 30.0727C103.954 29.3152 103.822 28.667 103.545 28.128C103.282 27.5745 102.894 27.1521 102.383 26.8608C101.886 26.5549 101.28 26.4019 100.564 26.4019C99.8191 26.4019 99.1689 26.5622 98.6138 26.8826C98.0586 27.2031 97.6203 27.6546 97.2989 28.2373C96.9921 28.8054 96.8387 29.4827 96.8387 30.2693C96.8387 31.0559 96.9994 31.7478 97.3208 32.345C97.6568 32.9422 98.117 33.4084 98.7014 33.7434C99.3004 34.0784 99.9871 34.2459 100.761 34.2459C101.39 34.2459 101.967 34.1367 102.493 33.9182C103.019 33.6851 103.464 33.3428 103.829 32.8913L104.816 33.8963C104.333 34.4644 103.734 34.9087 103.019 35.2292C102.317 35.5351 101.558 35.688 100.739 35.688Z" fill="black"/>
<path d="M115.209 35.5132L110.695 25.2002H112.382L116.02 33.8089H115.384L119.219 25.2002H120.929L116.086 35.5132H115.209ZM112.404 39.7957L115.231 33.9619L116.086 35.5132L114.091 39.7957H112.404Z" fill="black"/>
<path d="M142.616 62.7815L137.356 57.5158L142.528 52.5122H144.435L138.803 57.909L138.868 57.0351L144.654 62.7815H142.616ZM135.976 62.7815V47.312H137.51V62.7815H135.976Z" fill="black"/>
<path d="M154.561 63C153.582 63 152.706 62.7669 151.932 62.3008C151.157 61.8201 150.544 61.1792 150.091 60.378C149.652 59.5769 149.433 58.6738 149.433 57.6687C149.433 56.649 149.652 55.7386 150.091 54.9375C150.544 54.1218 151.157 53.4809 151.932 53.0147C152.706 52.534 153.575 52.2937 154.539 52.2937C155.328 52.2937 156.03 52.4539 156.643 52.7744C157.271 53.0803 157.775 53.5173 158.155 54.0854C158.55 54.6389 158.791 55.2871 158.879 56.03V59.2419C158.791 59.9848 158.55 60.6402 158.155 61.2083C157.775 61.7764 157.271 62.2207 156.643 62.5412C156.03 62.847 155.336 63 154.561 63ZM154.802 61.5361C155.869 61.5361 156.724 61.1792 157.366 60.4654C158.024 59.7517 158.353 58.8122 158.353 57.6468C158.353 56.8748 158.199 56.1975 157.892 55.6148C157.6 55.0176 157.184 54.5588 156.643 54.2383C156.117 53.9033 155.496 53.7358 154.78 53.7358C154.05 53.7358 153.4 53.9033 152.83 54.2383C152.275 54.5733 151.829 55.0395 151.493 55.6367C151.172 56.2193 151.011 56.8894 151.011 57.6468C151.011 58.4043 151.172 59.0744 151.493 59.657C151.829 60.2397 152.282 60.6985 152.852 61.0335C153.422 61.3686 154.072 61.5361 154.802 61.5361ZM158.265 62.7815V60.0285L158.572 57.4939L158.265 55.0249V52.5122H159.799V62.7815H158.265Z" fill="black"/>
<path d="M174.568 62.7815V56.751C174.568 55.8479 174.298 55.1196 173.758 54.5661C173.232 53.998 172.53 53.7139 171.654 53.7139C171.055 53.7139 170.529 53.845 170.076 54.1072C169.623 54.3694 169.265 54.7263 169.002 55.1778C168.739 55.6294 168.608 56.1465 168.608 56.7292L167.906 56.3359C167.906 55.5639 168.089 54.8719 168.454 54.2602C168.82 53.6484 169.309 53.1677 169.923 52.8181C170.551 52.4685 171.267 52.2937 172.07 52.2937C172.859 52.2937 173.56 52.4831 174.174 52.8618C174.788 53.2405 175.262 53.7503 175.598 54.3913C175.949 55.0322 176.124 55.7314 176.124 56.4888V62.7815H174.568ZM167.074 62.7815V52.5122H168.608V62.7815H167.074Z" fill="black"/>
<path d="M187.628 63C186.65 63 185.773 62.7669 184.999 62.3008C184.224 61.8201 183.611 61.1792 183.158 60.378C182.72 59.5769 182.5 58.6738 182.5 57.6687C182.5 56.649 182.72 55.7386 183.158 54.9375C183.611 54.1218 184.224 53.4809 184.999 53.0147C185.773 52.534 186.642 52.2937 187.606 52.2937C188.395 52.2937 189.097 52.4539 189.71 52.7744C190.338 53.0803 190.843 53.5173 191.222 54.0854C191.617 54.6389 191.858 55.2871 191.946 56.03V59.2419C191.858 59.9848 191.617 60.6402 191.222 61.2083C190.843 61.7764 190.338 62.2207 189.71 62.5412C189.097 62.847 188.403 63 187.628 63ZM187.869 61.5361C188.936 61.5361 189.791 61.1792 190.433 60.4654C191.091 59.7517 191.42 58.8122 191.42 57.6468C191.42 56.8748 191.266 56.1975 190.959 55.6148C190.667 55.0176 190.251 54.5588 189.71 54.2383C189.184 53.9033 188.563 53.7358 187.848 53.7358C187.117 53.7358 186.467 53.9033 185.897 54.2383C185.342 54.5733 184.896 55.0395 184.56 55.6367C184.239 56.2193 184.078 56.8894 184.078 57.6468C184.078 58.4043 184.239 59.0744 184.56 59.657C184.896 60.2397 185.349 60.6985 185.919 61.0335C186.489 61.3686 187.139 61.5361 187.869 61.5361ZM191.332 62.7815V60.0285L191.639 57.4939L191.332 55.0249V52.5122H192.866V62.7815H191.332Z" fill="black"/>
<path d="M202.924 63C203.479 63 204.012 62.9272 204.524 62.7815C205.035 62.6213 205.503 62.4028 205.926 62.126C206.335 61.8493 206.693 61.5215 207 61.1428L206.014 60.1377C205.605 60.633 205.145 61.0044 204.633 61.252C204.107 61.4851 203.523 61.6016 202.88 61.6016C202.193 61.6016 201.66 61.4705 201.28 61.2083C200.886 60.9461 200.689 60.582 200.689 60.1159C200.689 59.6789 200.827 59.3366 201.105 59.0889C201.383 58.8413 201.741 58.6446 202.179 58.499C202.602 58.3533 203.055 58.2149 203.538 58.0838C204.02 57.9382 204.48 57.7634 204.918 57.5594C205.356 57.341 205.714 57.0423 205.992 56.6636C206.255 56.2849 206.386 55.7896 206.386 55.1778C206.386 54.5952 206.248 54.0926 205.97 53.6702C205.678 53.2332 205.269 52.8982 204.743 52.6651C204.202 52.4175 203.567 52.2937 202.836 52.2937C202.062 52.2937 201.361 52.4321 200.732 52.7088C200.104 52.9856 199.6 53.3935 199.22 53.9324L200.206 54.9156C200.513 54.5224 200.9 54.2237 201.368 54.0198C201.821 53.8013 202.332 53.6921 202.902 53.6921C203.559 53.6921 204.063 53.8232 204.414 54.0854C204.75 54.333 204.918 54.6607 204.918 55.0686C204.918 55.4619 204.779 55.7751 204.502 56.0081C204.224 56.2266 203.874 56.4087 203.45 56.5544C203.012 56.6855 202.551 56.8238 202.069 56.9695C201.587 57.1006 201.127 57.2827 200.689 57.5158C200.25 57.7342 199.9 58.0401 199.637 58.4334C199.359 58.8122 199.22 59.3293 199.22 59.9848C199.22 60.9024 199.556 61.638 200.228 62.1916C200.886 62.7305 201.784 63 202.924 63Z" fill="black"/>
</svg>
